# xmcd
#
# Track frame offsets:
#	150
#	28560
#	44109
#	78172
#	89681
#	125896
#	152008
#	168408
#	195530
#	225169
#
# Disc length: 3038 seconds
#
# Revision: 0
# Processed by: cddbd v1.5.2PL0 Copyright (c) Steve Scherf et al.
# Submitted via: EasyCDDAExtractor 15.3.0.1
#
DISCID=7a0bdc0a
DTITLE=Michel Onfray - Freud, undroit d'inventaire
DYEAR=2011
DGENRE=Speech
TTITLE0=Les références livresques de Riech
TTITLE1=La rencontre avec Freud
TTITLE2=L'innovation de la théorie de l'inconscient
TTITLE3=Le disciple adorateur
TTITLE4=Premier grief - I - Variation sur le surhomme
TTITLE5=Premier grief - II - L'inefficacité thérapeutique
TTITLE6=Deuxième grief - L'attention flotante
TTITLE7=Troisième grief - I - La pulsion de mort
TTITLE8=Troisième grief - II - La biologie des passions
TTITLE9=Contre le déterminisme radical
EXTD=
EXTT0=
EXTT1=
EXTT2=
EXTT3=
EXTT4=
EXTT5=
EXTT6=
EXTT7=
EXTT8=
EXTT9=
PLAYORDER=
